<svg width="21.818359" height="22.339447" viewBox="0 0 21.8184 22.3394" fill="none" xmlns="http://www.w3.org/2000/svg" xmlns:xlink="http://www.w3.org/1999/xlink">
	<desc>
			Created with Pixso.
	</desc>
	<defs/>
	<path id="path" d="M3.37 1.28L3.34 1.28C3.05 0.98 3.05 0.51 3.34 0.22C3.64 -0.08 4.11 -0.08 4.4 0.22L4.4 0.25L3.37 1.28ZM17.93 0.25L17.93 0.22C18.22 -0.08 18.69 -0.08 18.99 0.22C19.28 0.51 19.28 0.98 18.99 1.28L18.96 1.28L17.93 0.25Z" fill="#000000" fill-opacity="0" fill-rule="nonzero"/>
	<path id="path" d="M3.87 0.75L11.16 8.04L18.46 0.75" stroke="#FFFFFF" stroke-opacity="1.000000" stroke-width="1.500000" stroke-linejoin="round" stroke-linecap="round"/>
	<path id="path" d="M4.4 22.08L4.4 22.11C4.11 22.41 3.64 22.41 3.34 22.11C3.05 21.81 3.05 21.35 3.34 21.05L3.37 21.05L4.4 22.08ZM18.96 21.05L18.99 21.05C19.28 21.35 19.28 21.81 18.99 22.11C18.69 22.41 18.22 22.41 17.93 22.11L17.93 22.08L18.96 21.05Z" fill="#000000" fill-opacity="0" fill-rule="nonzero"/>
	<path id="path" d="M3.87 21.58L11.16 14.29L18.46 21.58" stroke="#FFFFFF" stroke-opacity="1.000000" stroke-width="1.500000" stroke-linejoin="round" stroke-linecap="round"/>
	<path id="path" d="M20.53 3.37L20.53 3.34C20.83 3.05 21.29 3.05 21.59 3.34C21.89 3.64 21.89 4.11 21.59 4.4L21.56 4.4L20.53 3.37ZM21.56 17.93L21.59 17.93C21.89 18.22 21.89 18.69 21.59 18.99C21.29 19.28 20.83 19.28 20.53 18.99L20.53 18.96L21.56 17.93Z" fill="#000000" fill-opacity="0" fill-rule="nonzero"/>
	<path id="path" d="M21.06 3.87L13.77 11.16L21.06 18.46" stroke="#FFFFFF" stroke-opacity="1.000000" stroke-width="1.500000" stroke-linejoin="round" stroke-linecap="round"/>
	<path id="path" d="M0.25 4.4L0.22 4.4C-0.08 4.11 -0.08 3.64 0.22 3.34C0.51 3.05 0.98 3.05 1.28 3.34L1.28 3.37L0.25 4.4ZM1.28 18.96L1.28 18.99C0.98 19.28 0.51 19.28 0.22 18.99C-0.08 18.69 -0.08 18.22 0.22 17.93L0.25 17.93L1.28 18.96Z" fill="#000000" fill-opacity="0" fill-rule="nonzero"/>
	<path id="path" d="M0.75 3.87L8.04 11.16L0.75 18.46" stroke="#FFFFFF" stroke-opacity="1.000000" stroke-width="1.500000" stroke-linejoin="round" stroke-linecap="round"/>
</svg>
