<svg width="22.333374" height="22.333344" viewBox="0 0 22.3334 22.3333" fill="none" xmlns="http://www.w3.org/2000/svg" xmlns:xlink="http://www.w3.org/1999/xlink">
	<desc>
			Created with Pixso.
	</desc>
	<defs/>
	<path id="path" d="M21.56 8.35L21.58 8.33C22 8.33 22.33 8.66 22.33 9.08C22.33 9.5 22 9.83 21.58 9.83L21.56 9.81L21.56 8.35ZM12.52 0.76L12.5 0.75C12.5 0.32 12.83 0 13.25 0C13.67 0 14 0.32 14 0.75L13.98 0.76L12.52 0.76Z" fill="#000000" fill-opacity="0" fill-rule="nonzero"/>
	<path id="path" d="M21.58 9.08L13.25 9.08L13.25 0.75" stroke="#FFFFFF" stroke-opacity="1.000000" stroke-width="1.500000" stroke-linejoin="round" stroke-linecap="round"/>
	<path id="path" d="M0.77 13.98L0.75 14C0.32 14 0 13.67 0 13.25C0 12.83 0.32 12.5 0.75 12.5L0.77 12.52L0.77 13.98ZM9.81 21.56L9.83 21.58C9.83 22 9.5 22.33 9.08 22.33C8.66 22.33 8.33 22 8.33 21.58L8.35 21.56L9.81 21.56Z" fill="#000000" fill-opacity="0" fill-rule="nonzero"/>
	<path id="path" d="M0.75 13.25L9.08 13.25L9.08 21.58" stroke="#FFFFFF" stroke-opacity="1.000000" stroke-width="1.500000" stroke-linejoin="round" stroke-linecap="round"/>
</svg>
